<?xml version="1.0" encoding="utf-8"?>
<!-- Generator: Adobe Illustrator 23.0.2, SVG Export Plug-In . SVG Version: 6.00 Build 0)  -->
<svg version="1.1" id="Camada_1" xmlns="http://www.w3.org/2000/svg" xmlns:xlink="http://www.w3.org/1999/xlink" x="0px" y="0px"
	 viewBox="0 0 20 20" style="enable-background:new 0 0 20 20;" xml:space="preserve">
<g>
	<path d="M11.53,2.08c0.41,0,0.79,0.16,1.08,0.45l0.87,0.87c0.76,0.76,1.78,1.19,2.86,1.19h0.34c1.38,0,2.5,1.12,2.5,2.5l0,8.34
		c0,0.67-0.26,1.29-0.73,1.77c-0.47,0.47-1.1,0.73-1.77,0.73H3.33c-1.38,0-2.5-1.12-2.5-2.5l0-8.34c0-0.67,0.26-1.29,0.73-1.77
		c0.47-0.47,1.1-0.73,1.77-0.73h0.34c1.08,0,2.09-0.42,2.86-1.18L7.4,2.53c0.29-0.29,0.67-0.45,1.07-0.45H11.53 M11.53,1.25H8.47
		c-0.62,0-1.22,0.25-1.66,0.69L5.94,2.81c-0.6,0.6-1.42,0.94-2.27,0.94H3.33C1.49,3.75,0,5.24,0,7.08l0,8.34
		c0,1.84,1.49,3.33,3.33,3.33h13.34c1.84,0,3.33-1.49,3.33-3.33l0-8.34c0-1.84-1.49-3.33-3.33-3.33h-0.34
		c-0.85,0-1.67-0.34-2.27-0.94l-0.87-0.87C12.75,1.5,12.15,1.25,11.53,1.25L11.53,1.25z"/>
	<path d="M10,6.67c2.3,0,4.17,1.87,4.17,4.17c0,2.3-1.87,4.17-4.17,4.17c-2.3,0-4.17-1.87-4.17-4.17C5.83,8.54,7.7,6.67,10,6.67
		 M10,5.83c-2.76,0-5,2.24-5,5c0,2.76,2.24,5,5,5c2.76,0,5-2.24,5-5C15,8.07,12.76,5.83,10,5.83L10,5.83z"/>
</g>
</svg>
