<?xml version="1.0" encoding="utf-8"?>
<!-- Generator: Adobe Illustrator 23.0.2, SVG Export Plug-In . SVG Version: 6.00 Build 0)  -->
<svg version="1.1" id="Camada_1" xmlns="http://www.w3.org/2000/svg" xmlns:xlink="http://www.w3.org/1999/xlink" x="0px" y="0px"
	 viewBox="0 0 20 20" style="enable-background:new 0 0 20 20;" xml:space="preserve">
<path d="M19.95,1.67c-0.08-0.17-0.26-0.28-0.45-0.28h-19c-0.21,0-0.4,0.13-0.47,0.33c-0.07,0.2-0.02,0.42,0.14,0.55l6.67,5.71
	l0.01,10.12c0,0.22,0.14,0.41,0.34,0.47c0.05,0.02,0.1,0.03,0.16,0.03c0.15,0,0.3-0.07,0.4-0.2L19.9,2.19
	C20.01,2.04,20.03,1.84,19.95,1.67z M1.85,2.39h15.46L7.42,7.16L1.85,2.39z M7.85,8.07l10.02-4.84L7.86,16.61L7.85,8.07z"/>
</svg>
