<?xml version="1.0" encoding="utf-8"?>
<!-- Generator: Adobe Illustrator 23.0.2, SVG Export Plug-In . SVG Version: 6.00 Build 0)  -->
<svg version="1.1" id="Camada_1" xmlns="http://www.w3.org/2000/svg" xmlns:xlink="http://www.w3.org/1999/xlink" x="0px" y="0px"
	 viewBox="0 0 195 50" style="enable-background:new 0 0 195 50;" xml:space="preserve">
<style type="text/css">
	.st0{fill:#FFD05D;}
	.st1{fill:#FDC453;}
	.st2{fill:#FFD77F;}
	.st3{fill:#695342;}
	.st4{fill:#F06669;}
	.st5{fill:#E62728;}
	.st6{fill:#303030;}
	.st7{fill:#EE5181;}
	.st8{fill:#5E4939;}
	.st9{fill:#7CC4E8;}
	.st10{fill:#62BBE8;}
</style>
<g>
	<g>
		<g>
			<ellipse transform="matrix(0.1602 -0.9871 0.9871 0.1602 56.1345 115.9781)" class="st0" cx="96.23" cy="25" rx="25" ry="25"/>
		</g>
		<g>
			<path class="st1" d="M109.3,3.66c2.49,3.89,3.93,8.51,3.93,13.47c0,13.81-11.19,25-25,25c-4.8,0-9.27-1.35-13.08-3.69
				c4.44,6.94,12.22,11.53,21.07,11.53c13.81,0,25-11.19,25-25C121.23,15.96,116.46,8.06,109.3,3.66z"/>
		</g>
		<g>
			<path class="st2" d="M74.62,27.64c0-12.82,10.39-23.21,23.21-23.21c7.49,0,14.16,3.55,18.4,9.06
				c-4.01-6.96-11.52-11.64-20.13-11.64c-12.82,0-23.21,10.39-23.21,23.21c0,5.33,1.8,10.23,4.81,14.15
				C75.75,35.8,74.62,31.85,74.62,27.64z"/>
		</g>
	</g>
	<g>
		<path class="st3" d="M85.6,30.12c0.6,5.34,5.13,9.48,10.63,9.48c5.5,0,10.02-4.15,10.63-9.48H85.6z"/>
		<path class="st4" d="M88.89,36.68c1.92,1.81,4.5,2.92,7.34,2.92c2.72,0,5.2-1.02,7.09-2.69l-0.1-0.23
			C96.08,33.2,88.98,36.63,88.89,36.68z"/>
	</g>
	<g>
		<path id="XMLID_555_" class="st5" d="M92.78,17.73c0-0.01,0-0.02,0-0.04c0-2.31-1.67-4.42-4.18-4.42c-1.99,0-3.15,1.43-3.55,2.78
			l0,0c-0.39-1.34-1.55-2.78-3.55-2.78c-2.51,0-4.18,2.11-4.18,4.42c0,0.01,0,0.02,0,0.04c-0.01,0.5,0,5.61,7.72,9.78v0c0,0,0,0,0,0
			c0,0,0,0,0,0c0,0,0,0,0,0c0,0,0,0,0,0v0C92.78,23.34,92.79,18.23,92.78,17.73z"/>
		<path id="XMLID_554_" class="st5" d="M115.12,17.73c0-0.01,0-0.02,0-0.04c0-2.31-1.67-4.42-4.18-4.42c-1.99,0-3.15,1.43-3.55,2.78
			l0,0c-0.39-1.34-1.55-2.78-3.55-2.78c-2.51,0-4.18,2.11-4.18,4.42c0,0.01,0,0.02,0,0.04c-0.01,0.5,0,5.61,7.72,9.78v0c0,0,0,0,0,0
			c0,0,0,0,0,0c0,0,0,0,0,0c0,0,0,0,0,0v0C115.13,23.34,115.14,18.23,115.12,17.73z"/>
	</g>
</g>
<g>
	<g>
		<g>
			<ellipse transform="matrix(0.1602 -0.9871 0.9871 0.1602 1.0758 51.2644)" class="st0" cx="30.66" cy="25" rx="25" ry="25"/>
		</g>
		<g>
			<path class="st1" d="M43.74,3.66c2.49,3.89,3.93,8.51,3.93,13.47c0,13.81-11.19,25-25,25c-4.8,0-9.27-1.35-13.08-3.69
				c4.44,6.94,12.22,11.53,21.07,11.53c13.81,0,25-11.19,25-25C55.66,15.96,50.9,8.06,43.74,3.66z"/>
		</g>
		<g>
			<path class="st2" d="M9.06,27.64c0-12.82,10.39-23.21,23.21-23.21c7.49,0,14.16,3.55,18.4,9.06C46.66,6.53,39.15,1.85,30.55,1.85
				c-12.82,0-23.21,10.39-23.21,23.21c0,5.33,1.8,10.23,4.81,14.15C10.19,35.8,9.06,31.85,9.06,27.64z"/>
		</g>
	</g>
	<g>
		<path class="st6" d="M24.21,19.77c-0.71-1.77-2.4-2.91-4.3-2.91c-1.86,0-3.54,1.11-4.27,2.83c-0.14,0.33-0.03,0.7,0.27,0.9
			c0.3,0.2,0.68,0.17,0.94-0.08c1.39-1.35,3.58-2.42,6.15,0.07c0.15,0.14,0.33,0.21,0.52,0.21c0.14,0,0.29-0.04,0.42-0.13
			C24.23,20.47,24.34,20.1,24.21,19.77z"/>
		<path class="st6" d="M45.69,19.77c-0.71-1.77-2.4-2.91-4.3-2.91c-1.86,0-3.54,1.11-4.27,2.83c-0.14,0.33-0.03,0.7,0.26,0.9
			c0.3,0.2,0.68,0.17,0.94-0.08c1.39-1.35,3.58-2.42,6.15,0.07c0.15,0.14,0.33,0.21,0.52,0.21c0.14,0,0.29-0.04,0.42-0.13
			C45.71,20.47,45.82,20.1,45.69,19.77z"/>
	</g>
	<path id="XMLID_553_" class="st7" d="M19.49,29.71c0-0.01,0-0.03,0-0.04c0-2.49-1.8-4.78-4.52-4.78c-2.16,0-3.41,1.55-3.83,3l0,0
		c-0.43-1.45-1.68-3-3.83-3c-2.71,0-4.52,2.28-4.52,4.78c0,0.01,0,0.03,0,0.04c-0.01,0.54,0,6.07,8.35,10.57v0c0,0,0,0,0,0
		c0,0,0,0,0,0c0,0,0,0,0,0c0,0,0,0,0,0v0C19.49,35.78,19.5,30.26,19.49,29.71z"/>
	<g>
		<path class="st8" d="M30.67,38.9c-2.27,0-4.12-1.85-4.12-4.12c0-0.99,0.35-1.93,0.98-2.66c-0.63-0.74-0.98-1.68-0.98-2.66
			c0-2.27,1.85-4.12,4.12-4.12c1.38,0,2.67,0.69,3.44,1.84c0.22,0.32,0.13,0.76-0.2,0.98c-0.33,0.22-0.76,0.13-0.98-0.2
			c-0.5-0.76-1.35-1.21-2.26-1.21c-1.49,0-2.71,1.22-2.71,2.71c0,0.82,0.37,1.59,1.02,2.11c0.17,0.13,0.26,0.34,0.26,0.55
			c0,0.21-0.1,0.42-0.26,0.55c-0.65,0.52-1.02,1.29-1.02,2.11c0,1.49,1.22,2.71,2.71,2.71c0.9,0,1.74-0.45,2.25-1.19
			c0.22-0.32,0.66-0.41,0.98-0.19c0.32,0.22,0.41,0.66,0.19,0.98C33.31,38.22,32.04,38.9,30.67,38.9z"/>
	</g>
</g>
<g>
	<g>
		<g>
			<g>
				<circle class="st0" cx="163.22" cy="25" r="25"/>
			</g>
			<g>
				<path class="st1" d="M176.3,3.66c2.49,3.89,3.93,8.51,3.93,13.47c0,13.81-11.19,25-25,25c-4.8,0-9.27-1.35-13.08-3.69
					c4.44,6.94,12.22,11.53,21.07,11.53c13.81,0,25-11.19,25-25C188.22,15.96,183.45,8.06,176.3,3.66z"/>
			</g>
			<g>
				<path class="st2" d="M141.62,27.64c0-12.82,10.39-23.21,23.21-23.21c7.49,0,14.16,3.55,18.4,9.06
					c-4.01-6.96-11.52-11.64-20.13-11.64c-12.82,0-23.21,10.39-23.21,23.21c0,5.33,1.8,10.23,4.81,14.15
					C142.74,35.8,141.62,31.85,141.62,27.64z"/>
			</g>
		</g>
		<g>
			<g>
				<path class="st6" d="M149.74,25.4c-0.32,0-0.63-0.14-0.84-0.41c-0.36-0.46-0.28-1.13,0.18-1.49l3.61-2.81l-3.73-2.19
					c-0.5-0.3-0.67-0.95-0.38-1.45c0.3-0.5,0.95-0.67,1.45-0.38l5.07,2.98c0.3,0.18,0.5,0.49,0.52,0.84
					c0.02,0.35-0.13,0.69-0.41,0.9l-4.84,3.77C150.19,25.33,149.97,25.4,149.74,25.4z"/>
			</g>
			<g>
				<path class="st6" d="M176.71,25.4c-0.23,0-0.46-0.07-0.65-0.22l-4.84-3.77c-0.28-0.22-0.43-0.55-0.41-0.9
					c0.02-0.35,0.22-0.67,0.52-0.84l5.07-2.98c0.5-0.3,1.15-0.13,1.45,0.38c0.3,0.5,0.13,1.15-0.38,1.45l-3.73,2.19l3.61,2.81
					c0.46,0.36,0.54,1.03,0.18,1.49C177.34,25.26,177.02,25.4,176.71,25.4z"/>
			</g>
		</g>
	</g>
	<g>
		<g>
			<path class="st9" d="M179.02,24.27c-1.85,11.1,1.4,14.8,1.4,14.8c1.91,3.09,5.97,4.05,9.06,2.14c3.09-1.91,4.05-5.97,2.14-9.06
				C191.62,32.15,189.77,27.59,179.02,24.27z"/>
			<path class="st10" d="M184.17,41.93c1.73,0.51,3.66,0.3,5.31-0.72c3.09-1.91,4.05-5.97,2.14-9.06c0,0-0.78-1.92-4.26-4.17
				C190.74,35.93,186.99,40.07,184.17,41.93z"/>
		</g>
		<g>
			<path class="st9" d="M147.16,24.11c-10.67,3.57-12.41,8.17-12.41,8.17c-1.84,3.14-0.78,7.17,2.36,9.01
				c3.14,1.84,7.17,0.78,9.01-2.36C146.1,38.94,149.27,35.16,147.16,24.11z"/>
			<path class="st10" d="M133.97,36.94c0.36,1.76,1.44,3.37,3.12,4.36c3.14,1.84,7.17,0.78,9.01-2.36c0,0,1.33-1.59,1.69-5.72
				C142.35,39.93,136.94,38.56,133.97,36.94z"/>
		</g>
	</g>
	<g>
		<path class="st3" d="M148.9,28.31c0.81,7.19,6.91,12.78,14.32,12.78c7.41,0,13.51-5.59,14.32-12.78H148.9z"/>
		<path class="st4" d="M153.33,37.16c2.58,2.44,6.06,3.94,9.89,3.94c3.67,0,7.01-1.37,9.55-3.63l-0.13-0.31
			C163.03,32.47,153.46,37.09,153.33,37.16z"/>
	</g>
</g>
</svg>
