<?xml version="1.0" encoding="utf-8"?>
<!-- Generator: Adobe Illustrator 23.0.2, SVG Export Plug-In . SVG Version: 6.00 Build 0)  -->
<svg version="1.1" id="Camada_1" xmlns="http://www.w3.org/2000/svg" xmlns:xlink="http://www.w3.org/1999/xlink" x="0px" y="0px"
	 viewBox="0 0 20 20" style="enable-background:new 0 0 20 20;" xml:space="preserve">
<g>
	<path d="M20,11.14v6.79c0,0.77-0.62,1.38-1.38,1.38H13.2c-0.76,0-1.38-0.62-1.38-1.38v-4.1c0-1.01-0.81-1.82-1.82-1.82
		c-1,0-1.82,0.82-1.82,1.82v4.1c0,0.77-0.61,1.38-1.38,1.38H1.38C0.62,19.32,0,18.7,0,17.94v-6.79c0-0.61,0.24-1.2,0.67-1.63
		l8.42-8.46C9.34,0.8,9.67,0.68,10,0.68c0.33,0,0.66,0.12,0.9,0.37l8.42,8.46C19.76,9.95,20,10.53,20,11.14z"/>
</g>
</svg>
