<?xml version="1.0" encoding="utf-8"?>
<!-- Generator: Adobe Illustrator 23.0.2, SVG Export Plug-In . SVG Version: 6.00 Build 0)  -->
<svg version="1.1" id="Camada_1" xmlns="http://www.w3.org/2000/svg" xmlns:xlink="http://www.w3.org/1999/xlink" x="0px" y="0px"
	 viewBox="0 0 20 20" style="enable-background:new 0 0 20 20;" xml:space="preserve">
<g>
	<path d="M17.19,2.18c-0.88-0.55-1.85-0.81-2.8-0.81c-1.67,0-3.3,0.81-4.39,2.27C8.91,2.17,7.28,1.37,5.61,1.37
		c-0.95,0-1.92,0.26-2.8,0.81c-2.69,1.68-3.61,5.39-2.06,8.3c1.27,2.37,6.61,6.48,8.55,7.92c0.21,0.16,0.45,0.23,0.7,0.23
		c0.25,0,0.49-0.08,0.7-0.23c1.93-1.44,7.28-5.55,8.55-7.92C20.8,7.57,19.88,3.86,17.19,2.18z M18.44,10.05
		c-0.95,1.78-4.9,5.1-8.29,7.62c-0.06,0.04-0.12,0.05-0.16,0.05c-0.04,0-0.1-0.01-0.16-0.05c-3.38-2.52-7.34-5.85-8.29-7.62
		c-1.33-2.49-0.55-5.67,1.74-7.1C4,2.51,4.8,2.27,5.61,2.27c1.43,0,2.76,0.69,3.66,1.9L10,5.15l0.73-0.98
		c0.9-1.21,2.23-1.9,3.66-1.9c0.81,0,1.61,0.23,2.32,0.68C18.99,4.38,19.77,7.56,18.44,10.05z"/>
</g>
</svg>
