<?xml version="1.0" encoding="utf-8"?>
<!-- Generator: Adobe Illustrator 23.0.2, SVG Export Plug-In . SVG Version: 6.00 Build 0)  -->
<svg version="1.1" id="Camada_1" xmlns="http://www.w3.org/2000/svg" xmlns:xlink="http://www.w3.org/1999/xlink" x="0px" y="0px"
	 viewBox="0 0 20 20" style="enable-background:new 0 0 20 20;" xml:space="preserve">
<style type="text/css">
	.st0{fill:#D05260;}
</style>
<g>
	<path class="st0" d="M19.69,9.77c-0.18,0.56-0.45,1.1-0.79,1.59c-0.34,0.49-0.76,0.94-1.24,1.34l-7.03,5.68
		c-0.17,0.15-0.4,0.23-0.63,0.23c-0.22,0-0.45-0.08-0.63-0.22l-7.03-5.68c-0.98-0.8-1.68-1.81-2.03-2.93
		C-0.46,7.37,0.23,4.72,2.05,3c1.71-1.6,4.07-2.03,6.3-1.15C9.02,2.11,9.57,2.59,10,3.07c0.52-0.59,1.08-0.99,1.65-1.22
		c2.24-0.88,4.59-0.45,6.3,1.15C19.77,4.72,20.46,7.37,19.69,9.77z"/>
</g>
</svg>
