<?xml version="1.0" encoding="utf-8"?>
<!-- Generator: Adobe Illustrator 23.0.2, SVG Export Plug-In . SVG Version: 6.00 Build 0)  -->
<svg version="1.1" id="Camada_1" xmlns="http://www.w3.org/2000/svg" xmlns:xlink="http://www.w3.org/1999/xlink" x="0px" y="0px"
	 viewBox="0 0 20 20" style="enable-background:new 0 0 20 20;" xml:space="preserve">
<g>
	<path d="M10.01,4.33c-1.26,0-2.09-0.83-2.09-2.15C7.92,0.86,8.75,0,10.01,0c1.26,0,2.07,0.86,2.07,2.18
		C12.08,3.5,11.28,4.33,10.01,4.33z"/>
	<path d="M10.01,12.17c-1.26,0-2.09-0.83-2.09-2.15s0.83-2.18,2.09-2.18c1.26,0,2.07,0.86,2.07,2.18S11.28,12.17,10.01,12.17z"/>
	<path d="M10.01,20c-1.26,0-2.09-0.83-2.09-2.15c0-1.32,0.83-2.18,2.09-2.18c1.26,0,2.07,0.86,2.07,2.18
		C12.08,19.17,11.28,20,10.01,20z"/>
</g>
</svg>
