<?xml version="1.0" encoding="utf-8"?>
<!-- Generator: Adobe Illustrator 23.0.2, SVG Export Plug-In . SVG Version: 6.00 Build 0)  -->
<svg version="1.1" id="Camada_1" xmlns="http://www.w3.org/2000/svg" xmlns:xlink="http://www.w3.org/1999/xlink" x="0px" y="0px"
	 viewBox="0 0 20 20" style="enable-background:new 0 0 20 20;" xml:space="preserve">
<g>
	<path d="M13.71,0H6.29C2.82,0,0,2.82,0,6.29v7.41C0,17.18,2.82,20,6.29,20h7.41c3.47,0,6.29-2.82,6.29-6.29V6.29
		C20,2.82,17.18,0,13.71,0z M19.17,13.71c0,3.01-2.45,5.46-5.46,5.46H6.29c-3.01,0-5.46-2.45-5.46-5.46V6.29
		c0-3.01,2.45-5.46,5.46-5.46h7.41c3.01,0,5.46,2.45,5.46,5.46V13.71z"/>
	<polygon points="10.42,5.42 9.58,5.42 9.58,9.58 5.42,9.58 5.42,10.42 9.58,10.42 9.58,14.58 10.42,14.58 10.42,10.42 14.58,10.42 
		14.58,9.58 10.42,9.58 	"/>
</g>
</svg>
