<?xml version="1.0" encoding="utf-8"?>
<!-- Generator: Adobe Illustrator 23.0.2, SVG Export Plug-In . SVG Version: 6.00 Build 0)  -->
<svg version="1.1" id="Camada_1" xmlns="http://www.w3.org/2000/svg" xmlns:xlink="http://www.w3.org/1999/xlink" x="0px" y="0px"
	 viewBox="0 0 20 20" style="enable-background:new 0 0 20 20;" xml:space="preserve">
<g>
	<path d="M10,11.95c3.12,0,5.65-2.53,5.65-5.65S13.12,0.66,10,0.66c-3.12,0-5.65,2.53-5.65,5.65S6.89,11.95,10,11.95z M10,1.53
		c2.64,0,4.78,2.14,4.78,4.78s-2.15,4.78-4.78,4.78S5.22,8.94,5.22,6.31S7.36,1.53,10,1.53z"/>
	<path d="M14.67,12.82H10H5.33C2.39,12.82,0,15.21,0,18.15v0.79c0.01,0.56,0.87,0.52,0.87-0.03v-0.75c0-2.47,2-4.46,4.46-4.46H10
		h4.67c2.47,0,4.46,2,4.46,4.46v0.75c0,0.56,0.86,0.59,0.87,0.03v-0.79C20,15.21,17.61,12.82,14.67,12.82z"/>
</g>
</svg>
