<?xml version="1.0" encoding="utf-8"?>
<!-- Generator: Adobe Illustrator 23.0.2, SVG Export Plug-In . SVG Version: 6.00 Build 0)  -->
<svg version="1.1" id="Camada_1" xmlns="http://www.w3.org/2000/svg" xmlns:xlink="http://www.w3.org/1999/xlink" x="0px" y="0px"
	 viewBox="0 0 20 20" style="enable-background:new 0 0 20 20;" xml:space="preserve">
<path d="M17.06,0H2.94C1.96,0,1.16,0.8,1.16,1.78V18.7c0,0.51,0.29,0.96,0.76,1.18C2.09,19.96,2.27,20,2.46,20
	c0.3,0,0.6-0.11,0.84-0.31l6.7-5.75l6.7,5.75c0,0,0,0,0,0c0.39,0.33,0.92,0.41,1.39,0.19c0.47-0.21,0.76-0.67,0.76-1.18V1.78
	C18.84,0.8,18.04,0,17.06,0z M17.79,18.7c0,0.14-0.1,0.2-0.14,0.22c-0.04,0.02-0.15,0.06-0.26-0.04v0l-7.04-6.04
	c-0.2-0.17-0.49-0.17-0.68,0l-7.04,6.04c-0.11,0.09-0.22,0.06-0.26,0.04c-0.04-0.02-0.14-0.08-0.14-0.22V1.78
	c0-0.4,0.33-0.73,0.73-0.73h14.12c0.4,0,0.73,0.33,0.73,0.73V18.7z"/>
</svg>
